<svg width="174" height="69" viewBox="0 0 174 69" fill="none" xmlns="http://www.w3.org/2000/svg">
<path d="M50.1418 63.1468H48.4856V56.5096H50.1418V63.1468ZM47.1431 60.7253C46.4906 60.5915 45.9386 60.3782 45.4869 60.0854C45.0436 59.7926 44.6923 59.4455 44.433 59.044C44.182 59.4957 43.8224 59.8846 43.3539 60.2109C42.8939 60.5287 42.3209 60.7629 41.635 60.9135L40.9199 59.6588C41.3799 59.5668 41.773 59.4413 42.0993 59.2824C42.4338 59.1151 42.7057 58.9269 42.9148 58.7178C43.1323 58.5003 43.2912 58.2703 43.3916 58.0277C43.492 57.7768 43.5421 57.5217 43.5421 57.2624V56.8107H45.2611V57.2624C45.2611 57.4966 45.3112 57.7308 45.4116 57.965C45.512 58.1908 45.6667 58.4041 45.8759 58.6049C46.0933 58.7973 46.3652 58.9687 46.6914 59.1193C47.0176 59.2699 47.4024 59.387 47.8457 59.4706L47.1431 60.7253ZM50.1418 63.6612V67.9146H42.2498V63.6612H43.6927V62.6199C43.1657 62.6449 42.6513 62.6617 42.1494 62.67C41.6559 62.67 41.1833 62.67 40.7317 62.67L40.5435 61.3526C41.0788 61.3526 41.6476 61.3526 42.2498 61.3526C42.8521 61.3443 43.4669 61.3317 44.0942 61.315C44.7299 61.2899 45.3656 61.2564 46.0013 61.2146C46.6454 61.1728 47.2685 61.1142 47.8708 61.039L47.9712 62.2058C47.5362 62.2811 47.1013 62.3438 46.6663 62.394C46.2313 62.4442 45.788 62.4902 45.3363 62.532V63.862H43.8809V64.5897H48.4981V63.6612H50.1418ZM43.8809 65.8318V66.6223H48.4981V65.8318H43.8809ZM58.773 63.9373C58.9905 62.8499 59.1201 61.8921 59.1619 61.064C59.2121 60.2276 59.2372 59.4748 59.2372 58.8056H52.4996V57.4882H60.8934V58.5923C60.8934 58.952 60.8892 59.3284 60.8809 59.7215C60.8809 60.1147 60.8641 60.5371 60.8307 60.9888C60.8056 61.4321 60.7596 61.913 60.6927 62.4317C60.6341 62.9503 60.5463 63.5149 60.4292 64.1255L58.773 63.9373ZM61.8972 66.6599H51.4457V65.33H55.1344V61.3526H56.7906V65.33H61.8972V66.6599ZM74.0862 62.1305V68.0526H72.4551V56.497H74.0862V60.7629H75.2154V62.1305H74.0862ZM68.0135 57.5384V65.3802H64.6133V57.5384H65.9809V60.1983H66.671V57.5384H68.0135ZM71.8403 57.5384V65.3802H68.4527V57.5384H69.7826V60.1983H70.4853V57.5384H71.8403ZM65.9809 61.5032V64.0627H66.671V61.5032H65.9809ZM69.7826 61.5032V64.0627H70.4853V61.5032H69.7826ZM76.7577 58.0152V56.7605H84.6622V59.9725H78.4139V60.7755H84.888V62.0302H76.7828V58.8056H83.0311V58.0152H76.7577ZM85.9419 64.0627H75.4779V62.7453H85.9419V64.0627ZM84.9257 66.5345V67.8519H76.7953V64.6901H78.4515V66.5345H84.9257ZM99.0469 63.7491H88.5954V62.4567H92.9868V61.7416H89.9003V56.7981H97.8549V58.0528H91.5439V58.6551H97.5915V59.8596H91.5439V60.4869H97.9428V61.7416H94.643V62.4567H99.0469V63.7491ZM93.8023 64.2635C95.1323 64.2635 96.1319 64.4224 96.801 64.7403C97.4785 65.0581 97.8173 65.5307 97.8173 66.1581C97.8173 66.7854 97.4785 67.258 96.801 67.5758C96.1319 67.8937 95.1323 68.0526 93.8023 68.0526C92.4807 68.0526 91.4812 67.8937 90.8036 67.5758C90.1345 67.258 89.7999 66.7854 89.7999 66.1581C89.7999 65.5307 90.1345 65.0581 90.8036 64.7403C91.4812 64.4224 92.4807 64.2635 93.8023 64.2635ZM93.8023 66.8481C94.6137 66.8481 95.2076 66.7938 95.584 66.685C95.9604 66.5763 96.1486 66.4006 96.1486 66.1581C96.1486 65.9155 95.9604 65.744 95.584 65.6436C95.2076 65.5349 94.6137 65.4805 93.8023 65.4805C92.991 65.4805 92.3971 65.5349 92.0207 65.6436C91.6526 65.744 91.4686 65.9155 91.4686 66.1581C91.4686 66.4006 91.6526 66.5763 92.0207 66.685C92.3971 66.7938 92.991 66.8481 93.8023 66.8481ZM99.5101 58.8056V57.5133H102.082V56.4092H103.751V57.5133H106.336L106.323 58.8056H99.5101ZM108.619 60.6249V63.2597H106.963V56.497H108.619V59.2699H110.15V60.6249H108.619ZM105.758 61.1644C105.758 61.4655 105.687 61.7416 105.545 61.9925C105.411 62.2434 105.219 62.4609 104.968 62.6449C104.717 62.8206 104.416 62.9586 104.065 63.059C103.722 63.1594 103.341 63.2096 102.923 63.2096C102.505 63.2096 102.12 63.1594 101.769 63.059C101.426 62.9586 101.129 62.8206 100.878 62.6449C100.627 62.4609 100.43 62.2434 100.288 61.9925C100.154 61.7416 100.087 61.4655 100.087 61.1644C100.087 60.8549 100.154 60.5747 100.288 60.3238C100.43 60.0728 100.627 59.8596 100.878 59.6839C101.129 59.4999 101.426 59.3619 101.769 59.2699C102.12 59.1695 102.505 59.1193 102.923 59.1193C103.341 59.1193 103.722 59.1695 104.065 59.2699C104.416 59.3619 104.717 59.4999 104.968 59.6839C105.219 59.8596 105.411 60.0728 105.545 60.3238C105.687 60.5747 105.758 60.8549 105.758 61.1644ZM101.668 61.1644C101.668 61.4405 101.781 61.6496 102.007 61.7918C102.241 61.934 102.546 62.0051 102.923 62.0051C103.299 62.0051 103.6 61.934 103.826 61.7918C104.06 61.6496 104.178 61.4405 104.178 61.1644C104.178 60.8884 104.06 60.6793 103.826 60.5371C103.6 60.3949 103.299 60.3238 102.923 60.3238C102.546 60.3238 102.241 60.3949 102.007 60.5371C101.781 60.6793 101.668 60.8884 101.668 61.1644ZM108.619 63.6989V67.9272H101.104V63.6989H102.747V64.5772H106.975V63.6989H108.619ZM102.747 65.8318V66.6348H106.975V65.8318H102.747ZM121.039 61.3777H119.659V65.1418H118.003V56.4845H119.659V60.0101H121.039V61.3777ZM114.992 61.2648C115.084 60.7127 115.147 60.2276 115.18 59.8094C115.214 59.3911 115.235 59.0064 115.243 58.6551H110.939V57.3376H116.874V58.0528C116.874 58.4543 116.861 58.9395 116.836 59.5082C116.82 60.0687 116.744 60.7169 116.61 61.453L114.992 61.2648ZM117.476 63.0966C116.882 63.2054 116.272 63.2932 115.644 63.3601C115.025 63.427 114.411 63.4772 113.8 63.5107C113.189 63.5441 112.595 63.5692 112.018 63.586C111.45 63.5943 110.918 63.5985 110.425 63.5985L110.274 62.2811H111.291C111.642 62.2811 112.006 62.2769 112.382 62.2685V60.0227H114.001V62.2058C114.578 62.1807 115.147 62.1473 115.707 62.1054C116.268 62.0552 116.824 61.9925 117.376 61.9172L117.476 63.0966ZM120.023 66.5345V67.8519H111.956V64.3764H113.612V66.5345H120.023ZM130.963 68.0777H129.307V56.4845H130.963V68.0777ZM123.661 64.0251C124.539 64.0251 125.363 63.9958 126.133 63.9373C126.902 63.8787 127.693 63.7825 128.504 63.6487L128.68 64.9912C128.203 65.0748 127.739 65.1459 127.287 65.2045C126.835 65.2547 126.379 65.2965 125.919 65.33C125.459 65.3551 124.991 65.3718 124.514 65.3802C124.037 65.3885 123.535 65.3927 123.008 65.3927H121.967V60.6375H125.718V58.7931H121.954V57.4757H127.412V61.9423H123.661V64.0251ZM144.055 68.0777H142.399V56.4845H144.055V68.0777ZM138.961 59.0691C138.961 59.6044 139.02 60.1314 139.137 60.65C139.254 61.1686 139.43 61.6537 139.664 62.1054C139.898 62.5571 140.195 62.9628 140.555 63.3225C140.923 63.6738 141.35 63.954 141.835 64.1631L140.894 65.5056C140.216 65.2045 139.656 64.7821 139.212 64.2384C138.769 63.6863 138.418 63.0548 138.158 62.3438C137.899 63.1301 137.539 63.8202 137.079 64.414C136.619 64.9996 136.034 65.4554 135.323 65.7816L134.332 64.414C134.834 64.1966 135.273 63.9038 135.649 63.5358C136.025 63.1594 136.335 62.737 136.578 62.2685C136.82 61.7918 137 61.2815 137.117 60.7378C137.243 60.1858 137.305 59.6295 137.305 59.0691V57.3878H138.961V59.0691ZM154.795 63.3225C153.782 63.1217 152.917 62.7579 152.197 62.2309C151.486 61.7039 150.943 61.0724 150.566 60.3363C150.19 61.0724 149.646 61.7081 148.935 62.2434C148.224 62.7704 147.363 63.1301 146.351 63.3225L145.648 61.9423C146.3 61.8336 146.877 61.6454 147.379 61.3777C147.881 61.1017 148.304 60.7838 148.647 60.4242C148.99 60.0645 149.249 59.6755 149.424 59.2573C149.6 58.8307 149.688 58.4125 149.688 58.0026V57.1745H151.457V58.0026C151.457 58.4209 151.545 58.8433 151.721 59.2699C151.896 59.6881 152.156 60.077 152.498 60.4367C152.841 60.7964 153.264 61.1101 153.766 61.3777C154.268 61.6454 154.845 61.8336 155.497 61.9423L154.795 63.3225ZM155.861 66.6474H145.397V65.3049H155.861V66.6474ZM166.161 63.3978H164.593V56.5096H166.161V63.3978ZM161.192 60.5998V59.2699H162.322V56.6727H163.865V63.3099H162.322V60.5998H161.192ZM161.657 62.6951C161.33 62.7537 161.013 62.7997 160.703 62.8331C160.394 62.8666 160.076 62.8959 159.75 62.921C159.432 62.9377 159.093 62.9503 158.733 62.9586C158.374 62.9586 157.98 62.9586 157.554 62.9586H156.763V57.1871H161.105V58.492H158.357V59.4079H160.703V60.6625H158.357V61.6537C158.959 61.6537 159.507 61.637 160 61.6036C160.502 61.5617 161.008 61.4906 161.519 61.3903L161.657 62.6951ZM166.161 63.8494V67.9146H158.332V63.8494H166.161ZM164.542 66.6223V65.1418H159.963V66.6223H164.542Z" fill="#495057"/>
<path d="M14.6373 5.76525C14.6373 8.44017 12.4689 10.6086 9.79396 10.6086C7.11904 10.6086 4.95059 8.44017 4.95059 5.76525C4.95059 3.09033 7.11904 0.921875 9.79396 0.921875C12.4689 0.921875 14.6373 3.09033 14.6373 5.76525Z" fill="url(#paint0_linear_59_4001)"/>
<path d="M4.95059 16.8243H14.6373V49.1134H4.95059V16.8243Z" fill="url(#paint1_linear_59_4001)"/>
<path d="M14.6373 16.8243C14.6373 19.4992 12.4689 21.6677 9.79396 21.6677C7.11904 21.6677 4.95059 19.4992 4.95059 16.8243C4.95059 14.1494 7.11904 11.9809 9.79396 11.9809C12.4689 11.9809 14.6373 14.1494 14.6373 16.8243Z" fill="url(#paint2_linear_59_4001)"/>
<path d="M14.6373 49.1134C14.6373 51.7884 12.4689 53.9568 9.79396 53.9568C7.11904 53.9568 4.95059 51.7884 4.95059 49.1134C4.95059 46.4385 7.11904 44.2701 9.79396 44.2701C12.4689 44.2701 14.6373 46.4385 14.6373 49.1134Z" fill="url(#paint3_linear_59_4001)"/>
<path d="M30.7011 19.7303V29.4171H14.5566V19.7303L30.7011 19.7303Z" fill="url(#paint4_linear_59_4001)"/>
<path d="M14.6373 31.7667C8.84655 35.1165 4.95055 41.3774 4.95055 48.5484C4.95055 57.5933 11.1489 65.1905 19.5297 67.3241C22.1219 67.984 24.324 65.7534 24.324 63.0785C24.324 60.4036 22.0258 58.3355 19.6794 57.0511C17.2075 55.6979 15.3902 53.2982 14.8235 50.448C14.7022 50.024 14.6373 49.5763 14.6373 49.1134L14.6373 31.7667Z" fill="url(#paint5_linear_59_4001)"/>
<path d="M25.8578 19.7303H30.7011C33.3761 19.7303 35.5445 21.8988 35.5445 24.5737C35.5445 27.2486 33.3761 29.4171 30.7011 29.4171H25.8578V19.7303Z" fill="url(#paint6_linear_59_4001)"/>
<path d="M0.107178 24.5737C0.107178 21.8988 2.27563 19.7303 4.95055 19.7303H9.79392V29.4171H4.95055C2.27563 29.4171 0.107178 27.2486 0.107178 24.5737Z" fill="url(#paint7_linear_59_4001)"/>
<path d="M14.6373 32.646V42.3327H22.7096V32.646H14.6373Z" fill="url(#paint8_linear_59_4001)"/>
<path d="M17.7855 32.646H22.6289C25.3038 32.646 27.4722 34.8144 27.4722 37.4893C27.4722 40.1643 25.3038 42.3327 22.6289 42.3327H17.7855V32.646Z" fill="url(#paint9_linear_59_4001)"/>
<path d="M40.5632 45.1777C40.5632 40.962 40.5632 36.6961 40.5632 32.38C40.5632 28.0639 40.5632 23.798 40.5632 19.5822C43.0977 19.5822 45.6572 19.5822 48.2419 19.5822C50.8265 19.5822 53.3861 19.5822 55.9205 19.5822C55.9205 20.5609 55.9205 21.5521 55.9205 22.5558C55.9205 23.5596 55.9205 24.5508 55.9205 25.5294C54.4651 25.5294 52.9971 25.5294 51.5166 25.5294C50.0612 25.5294 48.6057 25.5294 47.1503 25.5294C47.1503 26.2571 47.1503 27.0099 47.1503 27.7878C47.1503 28.5407 47.1503 29.2809 47.1503 30.0086C48.4803 30.0086 49.8228 30.0086 51.1778 30.0086C52.5329 30.0086 53.8629 30.0086 55.1677 30.0086C55.1677 30.9371 55.1677 31.8781 55.1677 32.8317C55.1677 33.7852 55.1677 34.7388 55.1677 35.6923C53.8629 35.6923 52.5329 35.6923 51.1778 35.6923C49.8228 35.6923 48.4803 35.6923 47.1503 35.6923C47.1503 37.2481 47.1503 38.829 47.1503 40.435C47.1503 42.041 47.1503 43.6219 47.1503 45.1777C46.0713 45.1777 44.9797 45.1777 43.8756 45.1777C42.7715 45.1777 41.6674 45.1777 40.5632 45.1777ZM92.3188 45.1777C92.3188 40.962 92.3188 36.6961 92.3188 32.38C92.3188 28.0639 92.3188 23.798 92.3188 19.5822C93.8746 19.5822 95.443 19.5822 97.0239 19.5822C98.6048 19.5822 100.173 19.5822 101.729 19.5822C102.457 22.1418 103.172 24.739 103.874 27.3738C104.602 29.9835 105.317 32.5682 106.02 35.1277C106.723 32.5682 107.425 29.9835 108.128 27.3738C108.856 24.739 109.571 22.1418 110.273 19.5822C111.829 19.5822 113.385 19.5822 114.941 19.5822C116.497 19.5822 118.04 19.5822 119.571 19.5822C119.596 23.798 119.621 28.0639 119.646 32.38C119.671 36.6961 119.696 40.962 119.721 45.1777C118.667 45.1777 117.601 45.1777 116.522 45.1777C115.468 45.1777 114.414 45.1777 113.36 45.1777C113.36 42.3171 113.36 39.4313 113.36 36.5204C113.36 33.5845 113.36 30.6862 113.36 27.8255C112.607 30.6862 111.842 33.5845 111.064 36.5204C110.286 39.4313 109.521 42.3171 108.768 45.1777C107.839 45.1777 106.886 45.1777 105.907 45.1777C104.953 45.1777 104 45.1777 103.046 45.1777C102.294 42.3672 101.541 39.5317 100.788 36.671C100.035 33.7852 99.2823 30.9371 98.5295 28.1266C98.5295 30.9371 98.5295 33.7852 98.5295 36.671C98.5295 39.5317 98.5295 42.3672 98.5295 45.1777C97.5258 45.1777 96.4969 45.1777 95.443 45.1777C94.3891 45.1777 93.3477 45.1777 92.3188 45.1777ZM136.034 45.78C134.203 45.78 132.509 45.4538 130.953 44.8013C129.397 44.1238 128.055 43.1828 126.925 41.9783C125.796 40.7738 124.918 39.356 124.291 37.7249C123.663 36.0687 123.35 34.2745 123.35 32.3423C123.35 30.4101 123.663 28.6285 124.291 26.9974C124.918 25.3663 125.796 23.9611 126.925 22.7817C128.055 21.5772 129.397 20.6487 130.953 19.9963C132.509 19.3187 134.203 18.98 136.034 18.98C137.866 18.98 139.547 19.3187 141.078 19.9963C142.634 20.6487 143.977 21.5772 145.106 22.7817C146.26 23.9611 147.151 25.3663 147.778 26.9974C148.406 28.6285 148.719 30.4101 148.719 32.3423C148.719 34.2745 148.406 36.0687 147.778 37.7249C147.151 39.356 146.26 40.7738 145.106 41.9783C143.977 43.1828 142.634 44.1238 141.078 44.8013C139.547 45.4538 137.866 45.78 136.034 45.78ZM136.034 39.6822C137.264 39.6822 138.318 39.3811 139.196 38.7789C140.074 38.1515 140.752 37.2858 141.229 36.1817C141.731 35.0775 141.982 33.7978 141.982 32.3423C141.982 30.8869 141.731 29.6197 141.229 28.5407C140.752 27.4616 140.074 26.621 139.196 26.0187C138.318 25.3914 137.264 25.0777 136.034 25.0777C134.83 25.0777 133.776 25.3789 132.873 25.9811C131.994 26.5833 131.304 27.4365 130.802 28.5407C130.326 29.6197 130.087 30.8869 130.087 32.3423C130.087 33.7978 130.326 35.0775 130.802 36.1817C131.304 37.2858 131.994 38.1515 132.873 38.7789C133.776 39.3811 134.83 39.6822 136.034 39.6822ZM149.163 45.1777C150.468 40.962 151.773 36.6961 153.078 32.38C154.408 28.0639 155.725 23.798 157.03 19.5822C158.511 19.5822 160.004 19.5822 161.509 19.5822C163.04 19.5822 164.546 19.5822 166.026 19.5822C167.331 23.798 168.636 28.0639 169.941 32.38C171.271 36.6961 172.588 40.962 173.893 45.1777C172.814 45.1777 171.71 45.1777 170.581 45.1777C169.477 45.1777 168.372 45.1777 167.268 45.1777C167.017 44.3747 166.779 43.5717 166.553 42.7687C166.327 41.9406 166.089 41.1251 165.838 40.3221C164.408 40.3221 162.965 40.3221 161.509 40.3221C160.079 40.3221 158.649 40.3221 157.218 40.3221C156.967 41.1251 156.729 41.9406 156.503 42.7687C156.277 43.5717 156.039 44.3747 155.788 45.1777C154.709 45.1777 153.605 45.1777 152.476 45.1777C151.371 45.1777 150.267 45.1777 149.163 45.1777ZM158.874 34.7137C159.753 34.7137 160.631 34.7137 161.509 34.7137C162.413 34.7137 163.304 34.7137 164.182 34.7137C163.755 33.2332 163.316 31.7401 162.864 30.2345C162.413 28.7289 161.974 27.2358 161.547 25.7553C161.12 27.2358 160.669 28.7289 160.192 30.2345C159.74 31.7401 159.301 33.2332 158.874 34.7137Z" fill="#0F2B71"/>
<path d="M60.2333 45.1777C60.2333 40.962 60.2333 36.6961 60.2333 32.38C60.2333 28.0639 60.2333 23.798 60.2333 19.5822C61.3374 19.5822 62.4415 19.5822 63.5457 19.5822C64.6498 19.5822 65.7414 19.5822 66.8204 19.5822C66.8204 23.798 66.8204 28.0639 66.8204 32.38C66.8204 36.6961 66.8204 40.962 66.8204 45.1777C65.7414 45.1777 64.6498 45.1777 63.5457 45.1777C62.4415 45.1777 61.3374 45.1777 60.2333 45.1777Z" fill="#0F2B71"/>
<path d="M76.3972 45.1777C76.3972 41.9406 76.3972 38.6785 76.3972 35.3912C76.3972 32.0789 76.3972 28.8041 76.3972 25.5671C75.4437 25.5671 74.4776 25.5671 73.4989 25.5671C72.5203 25.5671 71.5542 25.5671 70.6006 25.5671C70.6006 24.5884 70.6006 23.5972 70.6006 22.5935C70.6006 21.5646 70.6006 20.5609 70.6006 19.5822C73.5867 19.5822 76.6105 19.5822 79.6719 19.5822C82.7334 19.5822 85.7571 19.5822 88.7433 19.5822C88.7433 20.5609 88.7433 21.5646 88.7433 22.5935C88.7433 23.5972 88.7433 24.5884 88.7433 25.5671C87.8148 25.5671 86.8613 25.5671 85.8826 25.5671C84.904 25.5671 83.9379 25.5671 82.9843 25.5671C82.9843 28.8041 82.9843 32.0789 82.9843 35.3912C82.9843 38.6785 82.9843 41.9406 82.9843 45.1777C81.9053 45.1777 80.8137 45.1777 79.7096 45.1777C78.6055 45.1777 77.5013 45.1777 76.3972 45.1777Z" fill="#0F2B71"/>
<defs>
<linearGradient id="paint0_linear_59_4001" x1="7.60718" y1="0.921875" x2="24.3785" y2="67.4986" gradientUnits="userSpaceOnUse">
<stop stop-color="#0F31CA"/>
<stop offset="0.5" stop-color="#0F2B71"/>
<stop offset="1" stop-color="#9D00DD"/>
</linearGradient>
<linearGradient id="paint1_linear_59_4001" x1="7.60718" y1="0.921875" x2="24.3785" y2="67.4986" gradientUnits="userSpaceOnUse">
<stop stop-color="#0F31CA"/>
<stop offset="0.5" stop-color="#0F2B71"/>
<stop offset="1" stop-color="#9D00DD"/>
</linearGradient>
<linearGradient id="paint2_linear_59_4001" x1="7.60718" y1="0.921875" x2="24.3785" y2="67.4986" gradientUnits="userSpaceOnUse">
<stop stop-color="#0F31CA"/>
<stop offset="0.5" stop-color="#0F2B71"/>
<stop offset="1" stop-color="#9D00DD"/>
</linearGradient>
<linearGradient id="paint3_linear_59_4001" x1="7.60718" y1="0.921875" x2="24.3785" y2="67.4986" gradientUnits="userSpaceOnUse">
<stop stop-color="#0F31CA"/>
<stop offset="0.5" stop-color="#0F2B71"/>
<stop offset="1" stop-color="#9D00DD"/>
</linearGradient>
<linearGradient id="paint4_linear_59_4001" x1="7.60718" y1="0.921875" x2="24.3785" y2="67.4986" gradientUnits="userSpaceOnUse">
<stop stop-color="#0F31CA"/>
<stop offset="0.5" stop-color="#0F2B71"/>
<stop offset="1" stop-color="#9D00DD"/>
</linearGradient>
<linearGradient id="paint5_linear_59_4001" x1="7.60718" y1="0.921875" x2="24.3785" y2="67.4986" gradientUnits="userSpaceOnUse">
<stop stop-color="#0F31CA"/>
<stop offset="0.5" stop-color="#0F2B71"/>
<stop offset="1" stop-color="#9D00DD"/>
</linearGradient>
<linearGradient id="paint6_linear_59_4001" x1="7.60718" y1="0.921875" x2="24.3785" y2="67.4986" gradientUnits="userSpaceOnUse">
<stop stop-color="#0F31CA"/>
<stop offset="0.5" stop-color="#0F2B71"/>
<stop offset="1" stop-color="#9D00DD"/>
</linearGradient>
<linearGradient id="paint7_linear_59_4001" x1="7.60718" y1="0.921875" x2="24.3785" y2="67.4986" gradientUnits="userSpaceOnUse">
<stop stop-color="#0F31CA"/>
<stop offset="0.5" stop-color="#0F2B71"/>
<stop offset="1" stop-color="#9D00DD"/>
</linearGradient>
<linearGradient id="paint8_linear_59_4001" x1="7.60718" y1="0.921875" x2="24.3785" y2="67.4986" gradientUnits="userSpaceOnUse">
<stop stop-color="#0F31CA"/>
<stop offset="0.5" stop-color="#0F2B71"/>
<stop offset="1" stop-color="#9D00DD"/>
</linearGradient>
<linearGradient id="paint9_linear_59_4001" x1="7.60718" y1="0.921875" x2="24.3785" y2="67.4986" gradientUnits="userSpaceOnUse">
<stop stop-color="#0F31CA"/>
<stop offset="0.5" stop-color="#0F2B71"/>
<stop offset="1" stop-color="#9D00DD"/>
</linearGradient>
</defs>
</svg>
