<svg width="24" height="24" viewBox="0 0 24 24" fill="none" xmlns="http://www.w3.org/2000/svg">
<path d="M14.25 7.5V5.25C14.25 4.65326 14.0129 4.08097 13.591 3.65901C13.169 3.23705 12.5967 3 12 3H4.125C3.52826 3 2.95597 3.23705 2.53401 3.65901C2.11205 4.08097 1.875 4.65326 1.875 5.25V18.75C1.875 19.3467 2.11205 19.919 2.53401 20.341C2.95597 20.7629 3.52826 21 4.125 21H12C12.5967 21 13.169 20.7629 13.591 20.341C14.0129 19.919 14.25 19.3467 14.25 18.75V16.5" stroke="#212529" stroke-width="2" stroke-linecap="round" stroke-linejoin="round"/>
<path d="M8.625 12H22.125M22.125 12L18.75 8.625M22.125 12L18.75 15.375" stroke="#212529" stroke-width="2" stroke-linecap="round" stroke-linejoin="round"/>
</svg>
